<svg width="30" height="24" viewBox="0 0 30 24" fill="none" xmlns="http://www.w3.org/2000/svg">
<path d="M28.5 10.5H1.5C0.671573 10.5 0 11.1716 0 12C0 12.8284 0.671573 13.5 1.5 13.5H28.5C29.3284 13.5 30 12.8284 30 12C30 11.1716 29.3284 10.5 28.5 10.5ZM28.5 0H1.5C0.671573 0 0 0.671573 0 1.5C0 2.32843 0.671573 3 1.5 3H28.5C29.3284 3 30 2.32843 30 1.5C30 0.671573 29.3284 0 28.5 0ZM1.5 24H28.5C29.3284 24 30 23.3284 30 22.5C30 21.6716 29.3284 21 28.5 21H1.5C0.671573 21 0 21.6716 0 22.5C0 23.3284 0.671573 24 1.5 24Z" fill="#ED903A"/>
</svg>
