<svg width="37" height="36" viewBox="0 0 37 36" fill="none" xmlns="http://www.w3.org/2000/svg">
<path fill-rule="evenodd" clip-rule="evenodd" d="M21.408 4.5H15.292H15.2919C13.766 4.49999 12.5387 4.49998 11.5456 4.58112C10.5241 4.66458 9.63208 4.84056 8.80842 5.26023C7.49599 5.92895 6.42895 6.99599 5.76023 8.30842C5.34056 9.13208 5.16458 10.0241 5.08112 11.0456C4.99998 12.0387 4.99999 13.266 5 14.7919V14.792V20.908V20.9081C4.99999 22.434 4.99998 23.6613 5.08112 24.6544C5.16458 25.6759 5.34056 26.5679 5.76023 27.3916C6.42895 28.704 7.49599 29.7711 8.80842 30.4398C9.63208 30.8594 10.5241 31.0354 11.5456 31.1189C12.5387 31.2 13.766 31.2 15.292 31.2H21.408C22.934 31.2 24.1613 31.2 25.1544 31.1189C26.1759 31.0354 27.0679 30.8594 27.8916 30.4398C29.204 29.7711 30.2711 28.704 30.9398 27.3916C31.3594 26.5679 31.5354 25.6759 31.6189 24.6544C31.7 23.6613 31.7 22.434 31.7 20.908V14.792C31.7 13.266 31.7 12.0387 31.6189 11.0456C31.5354 10.0241 31.3594 9.13208 30.9398 8.30842C30.2711 6.99599 29.204 5.92895 27.8916 5.26023C27.0679 4.84056 26.1759 4.66458 25.1544 4.58112C24.1613 4.49998 22.934 4.49999 21.4081 4.5H21.408ZM10.0342 7.66595C10.4138 7.47253 10.9109 7.34197 11.7654 7.27215C12.6357 7.20105 13.7526 7.2 15.35 7.2H21.35C22.9474 7.2 24.0643 7.20105 24.9346 7.27215C25.7891 7.34197 26.2862 7.47253 26.6658 7.66595C27.4702 8.07581 28.1242 8.7298 28.5341 9.53419C28.7275 9.91379 28.858 10.4109 28.9278 11.2654C28.999 12.1357 29 13.2526 29 14.85V20.85C29 22.4474 28.999 23.5643 28.9278 24.4346C28.858 25.2891 28.7275 25.7862 28.5341 26.1658C28.1242 26.9702 27.4702 27.6242 26.6658 28.0341C26.2862 28.2275 25.7891 28.358 24.9346 28.4278C24.0643 28.499 22.9474 28.5 21.35 28.5H15.35C13.7526 28.5 12.6357 28.499 11.7654 28.4278C10.9109 28.358 10.4138 28.2275 10.0342 28.0341C9.2298 27.6242 8.57581 26.9702 8.16595 26.1658C7.97253 25.7862 7.84197 25.2891 7.77215 24.4346C7.70105 23.5643 7.7 22.4474 7.7 20.85V14.85C7.7 13.2526 7.70105 12.1357 7.77215 11.2654C7.84197 10.4109 7.97253 9.91379 8.16595 9.53419C8.57581 8.7298 9.2298 8.07581 10.0342 7.66595ZM19.7 11.7C19.7 10.9545 19.0956 10.35 18.35 10.35C17.6044 10.35 17 10.9545 17 11.7V24C17 24.7456 17.6044 25.35 18.35 25.35C19.0956 25.35 19.7 24.7456 19.7 24V11.7ZM12.35 14.85C13.0956 14.85 13.7 15.4545 13.7 16.2V24C13.7 24.7456 13.0956 25.35 12.35 25.35C11.6044 25.35 11 24.7456 11 24V16.2C11 15.4545 11.6044 14.85 12.35 14.85ZM25.7 19.2C25.7 18.4545 25.0956 17.85 24.35 17.85C23.6044 17.85 23 18.4545 23 19.2V24C23 24.7456 23.6044 25.35 24.35 25.35C25.0956 25.35 25.7 24.7456 25.7 24V19.2Z" fill="white"/>
</svg>
