<svg width="32" height="32" viewBox="0 0 32 32" fill="none" xmlns="http://www.w3.org/2000/svg">
<path fill-rule="evenodd" clip-rule="evenodd" d="M22.3045 2.51253L22.6876 2.58115C23.8838 2.79539 24.8561 2.96953 25.6338 3.17535C26.4371 3.38792 27.1387 3.6595 27.7539 4.12461C28.723 4.85735 29.4372 5.87734 29.7942 7.0387C30.0209 7.77587 30.0361 8.52803 29.9611 9.35554C29.8885 10.1567 29.7195 11.1299 29.5116 12.3273L28.4069 18.6918C28.199 19.8891 28.0301 20.8624 27.8285 21.6406C27.6204 22.4441 27.3526 23.1471 26.8898 23.7633C26.161 24.7336 25.1429 25.4464 23.9818 25.7994C23.2445 26.0235 22.4922 26.0347 21.666 25.9554C20.8658 25.8786 19.8935 25.7045 18.6973 25.4902L18.3143 25.4216C17.118 25.2074 16.1457 25.0332 15.368 24.8274C14.5648 24.6148 13.8632 24.3433 13.248 23.8781C12.2788 23.1454 11.5647 22.1254 11.2076 20.9641C10.981 20.2269 10.9658 19.4747 11.0408 18.6472C11.1134 17.846 11.2824 16.8728 11.4902 15.6754L12.595 9.31087C12.8028 8.11358 12.9718 7.14035 13.1733 6.36216C13.3814 5.55869 13.6493 4.85563 14.1121 4.23949C14.8409 3.26915 15.859 2.55631 17.0201 2.20335C17.7574 1.97923 18.5096 1.96803 19.3358 2.04732C20.136 2.12411 21.1083 2.29827 22.3045 2.51253ZM19.097 4.53588C18.4249 4.47139 18.0413 4.50587 17.7472 4.59528C17.0938 4.7939 16.5211 5.19486 16.111 5.74091C15.9264 5.98671 15.7627 6.3354 15.5935 6.98897C15.4206 7.65656 15.2682 8.52869 15.0491 9.79059L13.9624 16.051C13.7434 17.3128 13.5929 18.1854 13.5306 18.8729C13.4696 19.5456 13.5057 19.9317 13.5972 20.2294C13.7999 20.8887 14.2055 21.468 14.7557 21.884C15.0042 22.0718 15.3546 22.2378 16.0076 22.4106C16.675 22.5872 17.5464 22.7443 18.807 22.9701L19.0861 23.0201C20.3468 23.2459 21.2184 23.401 21.9049 23.4669C22.5769 23.5314 22.9605 23.4969 23.2547 23.4075C23.9081 23.2088 24.4807 22.8079 24.8909 22.2618C25.0755 22.016 25.2391 21.6673 25.4084 21.0138C25.5813 20.3462 25.7337 19.4741 25.9527 18.2122L27.0394 11.9518C27.2585 10.6899 27.409 9.81739 27.4713 9.12988C27.5323 8.45712 27.4961 8.07105 27.4046 7.77333C27.2019 7.11405 26.7963 6.53477 26.2462 6.1188C25.9977 5.93096 25.6473 5.76497 24.9942 5.59214C24.3269 5.41553 23.4555 5.25847 22.1948 5.03267L21.9158 4.9827C20.6551 4.75689 19.7835 4.60176 19.097 4.53588Z" fill="#ED903A"/>
<path fill-rule="evenodd" clip-rule="evenodd" d="M8.87106 6.32348C9.55045 6.20096 10.2005 6.6524 10.3231 7.33179C10.4456 8.01119 9.99413 8.66127 9.31474 8.78379L9.22216 8.80049C7.02368 9.19747 6.25721 9.40111 5.75343 9.782C5.20324 10.198 4.79764 10.7772 4.59496 11.4365C4.50343 11.7342 4.46732 12.1203 4.5283 12.7931C4.59061 13.4806 4.74109 14.3531 4.96013 15.615L6.10489 22.2097C6.32394 23.4716 6.47632 24.3438 6.64922 25.0113C6.8185 25.6649 6.98212 26.0136 7.16675 26.2594C7.57689 26.8054 8.14955 27.2064 8.80295 27.405C9.09707 27.4944 9.4807 27.5289 10.1528 27.4644C10.8392 27.3985 11.7109 27.2434 12.9716 27.0176L13.2898 26.9606C13.9694 26.8389 14.6189 27.2911 14.7406 27.9706C14.8623 28.6502 14.4101 29.2997 13.7306 29.4214L13.3602 29.4878C12.1641 29.702 11.1918 29.8762 10.3916 29.953C9.56539 30.0323 8.81312 30.0211 8.07584 29.797C6.91473 29.444 5.89665 28.7312 5.16782 27.7608C4.70502 27.1447 4.43718 26.4416 4.22908 25.6382C4.02753 24.86 3.8586 23.8867 3.65078 22.6895L2.48793 15.9905C2.28007 14.7931 2.11112 13.8199 2.0385 13.0187C1.9635 12.1912 1.97871 11.4391 2.20533 10.7019C2.56236 9.54054 3.27654 8.52055 4.24571 7.7878C5.32791 6.96961 6.78293 6.70051 8.77792 6.34027L8.87106 6.32348Z" fill="#ED903A"/>
</svg>
