<svg width="32" height="32" viewBox="0 0 32 32" fill="none" xmlns="http://www.w3.org/2000/svg">
<path fill-rule="evenodd" clip-rule="evenodd" d="M22.3045 2.51241L22.6876 2.58102C23.8838 2.79527 24.8561 2.96941 25.6338 3.17522C26.4371 3.3878 27.1387 3.65937 27.7539 4.12449C28.723 4.85723 29.4372 5.87722 29.7942 7.03857C30.0209 7.77575 30.0361 8.52791 29.9611 9.35542C29.8885 10.1566 29.7195 11.1298 29.5116 12.3272L28.4069 18.6917C28.199 19.889 28.0301 20.8623 27.8285 21.6405C27.6204 22.4439 27.3526 23.147 26.8898 23.7631C26.161 24.7335 25.1429 25.4463 23.9818 25.7993C23.2445 26.0234 22.4922 26.0346 21.666 25.9553C20.8658 25.8785 19.8935 25.7044 18.6973 25.4901L18.3143 25.4215C17.118 25.2072 16.1457 25.0331 15.368 24.8273C14.5648 24.6147 13.8632 24.3431 13.248 23.878C12.2788 23.1453 11.5647 22.1253 11.2076 20.9639C10.981 20.2268 10.9658 19.4746 11.0408 18.6471C11.1134 17.8459 11.2824 16.8727 11.4902 15.6753L12.595 9.31074C12.8028 8.11346 12.9718 7.14022 13.1733 6.36203C13.3814 5.55857 13.6493 4.85551 14.1121 4.23936C14.8409 3.26903 15.859 2.55619 17.0201 2.20323C17.7574 1.97911 18.5096 1.96791 19.3358 2.04719C20.136 2.12399 21.1083 2.29815 22.3045 2.51241ZM19.097 4.53576C18.4249 4.47127 18.0413 4.50575 17.7472 4.59516C17.0938 4.79378 16.5211 5.19474 16.111 5.74079C15.9264 5.98659 15.7627 6.33528 15.5935 6.98885C15.4206 7.65643 15.2682 8.52857 15.0491 9.79046L13.9624 16.0509C13.7434 17.3127 13.5929 18.1852 13.5306 18.8728C13.4696 19.5455 13.5057 19.9316 13.5972 20.2293C13.7999 20.8886 14.2055 21.4679 14.7557 21.8838C15.0042 22.0717 15.3546 22.2377 16.0076 22.4105C16.675 22.5871 17.5464 22.7442 18.807 22.97L19.0861 23.0199C20.3468 23.2457 21.2184 23.4009 21.9049 23.4667C22.5769 23.5312 22.9605 23.4968 23.2547 23.4074C23.9081 23.2087 24.4807 22.8078 24.8909 22.2617C25.0755 22.0159 25.2391 21.6672 25.4084 21.0137C25.5813 20.3461 25.7337 19.4739 25.9527 18.212L27.0394 11.9517C27.2585 10.6898 27.409 9.81726 27.4713 9.12976C27.5323 8.45699 27.4961 8.07093 27.4046 7.77321C27.2019 7.11393 26.7963 6.53464 26.2462 6.11868C25.9977 5.93084 25.6473 5.76485 24.9942 5.59202C24.3269 5.41541 23.4555 5.25835 22.1948 5.03255L21.9158 4.98257C20.6551 4.75677 19.7835 4.60164 19.097 4.53576Z" fill="white"/>
<path fill-rule="evenodd" clip-rule="evenodd" d="M8.87106 6.32335C9.55045 6.20084 10.2005 6.65228 10.3231 7.33167C10.4456 8.01107 9.99413 8.66115 9.31474 8.78367L9.22216 8.80036C7.02368 9.19735 6.25721 9.40099 5.75343 9.78187C5.20324 10.1978 4.79764 10.7771 4.59496 11.4364C4.50343 11.7341 4.46732 12.1202 4.5283 12.7929C4.59061 13.4805 4.74109 14.353 4.96013 15.6148L6.10489 22.2096C6.32394 23.4715 6.47632 24.3436 6.64922 25.0112C6.8185 25.6648 6.98212 26.0135 7.16675 26.2593C7.57689 26.8053 8.14955 27.2063 8.80295 27.4049C9.09707 27.4943 9.4807 27.5288 10.1528 27.4643C10.8392 27.3984 11.7109 27.2433 12.9716 27.0175L13.2898 26.9605C13.9694 26.8388 14.6189 27.291 14.7406 27.9705C14.8623 28.6501 14.4101 29.2996 13.7306 29.4213L13.3602 29.4877C12.1641 29.7019 11.1918 29.8761 10.3916 29.9529C9.56539 30.0322 8.81312 30.021 8.07584 29.7968C6.91473 29.4439 5.89665 28.731 5.16782 27.7607C4.70502 27.1446 4.43718 26.4415 4.22908 25.638C4.02753 24.8598 3.8586 23.8866 3.65078 22.6893L2.48793 15.9904C2.28007 14.793 2.11112 13.8198 2.0385 13.0186C1.9635 12.1911 1.97871 11.4389 2.20533 10.7018C2.56236 9.54042 3.27654 8.52042 4.24571 7.78768C5.32791 6.96949 6.78293 6.70038 8.77792 6.34015L8.87106 6.32335Z" fill="white"/>
</svg>
