<svg width="31" height="31" viewBox="0 0 31 31" fill="none" xmlns="http://www.w3.org/2000/svg">
<path d="M21.2364 13.0281C21.7711 12.4937 21.7713 11.627 21.2369 11.0924C20.7026 10.5577 19.8359 10.5574 19.3012 11.0918L13.4248 16.965L11.4999 15.0421C10.9651 14.5079 10.0984 14.5083 9.56419 15.0431C9.02994 15.578 9.0304 16.4446 9.56521 16.9788L12.4577 19.8683C12.9922 20.4023 13.8583 20.4021 14.3927 19.8681L21.2364 13.0281Z" fill="white"/>
<path fill-rule="evenodd" clip-rule="evenodd" d="M12.5404 0.131765C11.3588 -0.140919 10.1201 0.214352 9.26256 1.07185L1.07197 9.26244C0.214472 10.1199 -0.140797 11.3587 0.131887 12.5403L2.98032 24.8835C3.28275 26.194 4.30605 27.2173 5.61656 27.5198L17.9598 30.3682C19.1414 30.6409 20.3802 30.2856 21.2377 29.4281L29.4282 21.2375C30.2857 20.38 30.641 19.1413 30.3683 17.9596L27.5199 5.61643C27.2175 4.30592 26.1942 3.28262 24.8837 2.9802L12.5404 0.131765ZM11.1983 3.00756C11.3884 2.81747 11.663 2.73871 11.9249 2.79916L24.2681 5.64759C24.5586 5.71464 24.7855 5.94148 24.8525 6.23198L27.7009 18.5752C27.7614 18.8371 27.6826 19.1117 27.4925 19.3018L19.302 27.4924C19.1119 27.6825 18.8373 27.7613 18.5753 27.7008L6.23211 24.8524C5.9416 24.7853 5.71476 24.5585 5.64772 24.268L2.79929 11.9248C2.73884 11.6628 2.81759 11.3882 3.00768 11.1981L11.1983 3.00756Z" fill="white"/>
</svg>
