<svg width="28" height="30" viewBox="0 0 28 30" fill="none" xmlns="http://www.w3.org/2000/svg">
<path d="M21.8541 21.5729C21.8541 22.8328 20.8328 23.8541 19.5729 23.8541C18.313 23.8541 17.2916 22.8328 17.2916 21.5729C17.2916 20.313 18.313 19.2916 19.5729 19.2916C20.8328 19.2916 21.8541 20.313 21.8541 21.5729Z" fill="white"/>
<path fill-rule="evenodd" clip-rule="evenodd" d="M8.16663 0.28125C8.92257 0.28125 9.53538 0.89406 9.53538 1.65V2.56316C9.80873 2.56249 10.0933 2.5625 10.3895 2.5625H18.1105C18.4067 2.5625 18.6912 2.56249 18.9645 2.56316V1.65C18.9645 0.89406 19.5774 0.28125 20.3333 0.28125C21.0892 0.28125 21.702 0.89406 21.702 1.65V2.64309C22.6568 2.72395 23.5009 2.89296 24.2838 3.29185C25.5429 3.9334 26.5666 4.9571 27.2082 6.21621C27.6129 7.01065 27.781 7.86812 27.8604 8.84038C27.9375 9.78393 27.9375 10.9485 27.9375 12.3895V20.1105C27.9375 21.5515 27.9375 22.7161 27.8604 23.6596C27.781 24.6319 27.6129 25.4894 27.2082 26.2838C26.5666 27.5429 25.5429 28.5666 24.2838 29.2082C23.4894 29.6129 22.6319 29.781 21.6596 29.8604C20.7161 29.9375 19.5515 29.9375 18.1105 29.9375H10.3895C8.94851 29.9375 7.78393 29.9375 6.84038 29.8604C5.86812 29.781 5.01065 29.6129 4.21622 29.2082C2.9571 28.5666 1.9334 27.5429 1.29185 26.2838C0.887066 25.4894 0.719004 24.6319 0.639568 23.6596C0.562476 22.7161 0.562487 21.5515 0.5625 20.1105V12.3895C0.562487 10.9485 0.562476 9.78393 0.639568 8.84037C0.719004 7.86812 0.887066 7.01065 1.29185 6.21621C1.9334 4.9571 2.9571 3.9334 4.21622 3.29185C4.99905 2.89297 5.84311 2.72396 6.79788 2.6431V1.65C6.79788 0.89406 7.41069 0.28125 8.16663 0.28125ZM6.79788 5.39303C6.15597 5.46256 5.76335 5.57591 5.45901 5.73098C4.71499 6.11008 4.11008 6.71499 3.73098 7.45901C3.5556 7.80321 3.43358 8.26033 3.36798 9.06329C3.31289 9.73749 3.30243 10.57 3.30046 11.6875H25.1995C25.1976 10.57 25.1871 9.73749 25.132 9.06329C25.0664 8.26033 24.9444 7.80321 24.769 7.45901C24.3899 6.71499 23.785 6.11008 23.041 5.73098C22.7366 5.5759 22.344 5.46255 21.702 5.39302V6.51667C21.702 7.27261 21.0892 7.88542 20.3333 7.88542C19.5774 7.88542 18.9645 7.27261 18.9645 6.51667V5.30079C18.6801 5.30005 18.3767 5.3 18.0521 5.3H10.4479C10.1233 5.3 9.81985 5.30005 9.53538 5.30079V6.51667C9.53538 7.27261 8.92257 7.88542 8.16663 7.88542C7.41069 7.88542 6.79788 7.27261 6.79788 6.51667V5.39303ZM25.2 14.425H3.3V20.0521C3.3 21.5652 3.30107 22.6178 3.36798 23.4367C3.43358 24.2397 3.5556 24.6968 3.73098 25.041C4.11008 25.785 4.71499 26.3899 5.45901 26.769C5.80322 26.9444 6.26033 27.0664 7.0633 27.132C7.88224 27.1989 8.93477 27.2 10.4479 27.2H18.0521C19.5652 27.2 20.6178 27.1989 21.4367 27.132C22.2397 27.0664 22.6968 26.9444 23.041 26.769C23.785 26.3899 24.3899 25.785 24.769 25.041C24.9444 24.6968 25.0664 24.2397 25.132 23.4367C25.1989 22.6178 25.2 21.5652 25.2 20.0521V14.425Z" fill="white"/>
</svg>
