<svg width="27" height="28" viewBox="0 0 27 28" fill="none" xmlns="http://www.w3.org/2000/svg">
<path fill-rule="evenodd" clip-rule="evenodd" d="M13.7781 3.27591C13.5974 3.21718 13.4027 3.21718 13.2219 3.27591C13.202 3.28237 13.1179 3.31192 12.8948 3.50134C12.6596 3.70099 12.3703 3.98879 11.909 4.45006L3.8605 12.4986C3.29621 13.0629 3.17579 13.1956 3.09317 13.3304C3.0027 13.478 2.93603 13.639 2.89561 13.8074C2.8587 13.9611 2.85002 14.1401 2.85002 14.9381V22.3999C2.85002 23.0522 2.85107 23.4603 2.8762 23.7677C2.90003 24.0594 2.93863 24.1399 2.94812 24.1585C3.0344 24.3278 3.17209 24.4655 3.34143 24.5518C3.36005 24.5613 3.44045 24.5999 3.73216 24.6237C4.03963 24.6488 4.44769 24.6499 5.10002 24.6499H9.15002V19.8499C9.15002 17.4474 11.0976 15.4999 13.5 15.4999C15.9025 15.4999 17.85 17.4474 17.85 19.8499V24.6499H21.9C22.5524 24.6499 22.9604 24.6488 23.2679 24.6237C23.5596 24.5999 23.64 24.5613 23.6586 24.5518C23.828 24.4655 23.9656 24.3278 24.0519 24.1585C24.0614 24.1399 24.1 24.0594 24.1239 23.7677C24.149 23.4603 24.15 23.0522 24.15 22.3999V14.9381C24.15 14.1401 24.1413 13.9611 24.1044 13.8074C24.064 13.639 23.9973 13.478 23.9069 13.3304C23.8243 13.1956 23.7038 13.0629 23.1395 12.4986L15.091 4.45006C14.6297 3.98879 14.3405 3.70099 14.1053 3.50134C13.8822 3.31192 13.798 3.28237 13.7781 3.27591ZM12.3876 0.708057C13.1106 0.473128 13.8895 0.473128 14.6125 0.708058C15.1064 0.868524 15.5018 1.14519 15.8527 1.44302C16.1821 1.72272 16.5496 2.09025 16.9649 2.50553L25.0487 10.5894C25.0771 10.6178 25.1052 10.6458 25.133 10.6736C25.5695 11.1094 25.9379 11.4772 26.209 11.9197C26.4475 12.3089 26.6233 12.7332 26.7298 13.177C26.851 13.6816 26.8506 14.2022 26.8501 14.819C26.8501 14.8583 26.85 14.898 26.85 14.9381V22.4499C26.8501 23.0371 26.8501 23.5569 26.8149 23.9876C26.7774 24.4463 26.6934 24.9216 26.4576 25.3842C26.1125 26.0616 25.5618 26.6124 24.8844 26.9575C24.4217 27.1932 23.9464 27.2773 23.4878 27.3147C23.057 27.3499 22.5373 27.3499 21.95 27.3499H16.783C15.8812 27.3499 15.15 26.6188 15.15 25.7169V19.8499C15.15 18.9386 14.4113 18.1999 13.5 18.1999C12.5888 18.1999 11.85 18.9386 11.85 19.8499V25.7169C11.85 26.6188 11.1189 27.3499 10.217 27.3499H5.05002C4.46276 27.3499 3.94303 27.3499 3.5123 27.3147C3.05362 27.2773 2.57834 27.1932 2.11566 26.9575C1.43827 26.6124 0.887545 26.0616 0.542401 25.3842C0.306653 24.9216 0.222638 24.4463 0.185162 23.9876C0.14997 23.5569 0.149995 23.0371 0.150023 22.4499L0.150025 14.9381C0.150025 14.898 0.149993 14.8583 0.149963 14.819C0.149479 14.2022 0.14907 13.6817 0.270215 13.177C0.376776 12.7332 0.552534 12.3089 0.791038 11.9197C1.06219 11.4772 1.43054 11.1094 1.86703 10.6736C1.89485 10.6458 1.92295 10.6178 1.95131 10.5894L10.0352 2.50551C10.4504 2.09024 10.8179 1.72271 11.1474 1.44302C11.4982 1.14519 11.8937 0.868524 12.3876 0.708057Z" fill="white"/>
</svg>
