<svg width="27" height="28" viewBox="0 0 27 28" fill="none" xmlns="http://www.w3.org/2000/svg">
<path fill-rule="evenodd" clip-rule="evenodd" d="M16.408 0.5H10.292H10.2919C8.76604 0.499988 7.53872 0.499978 6.54558 0.58112C5.52411 0.664578 4.63208 0.840556 3.80842 1.26023C2.49599 1.92895 1.42895 2.99599 0.76023 4.30842C0.340556 5.13208 0.164578 6.02411 0.0811204 7.04558C-2.23964e-05 8.03872 -1.22737e-05 9.26604 3.12342e-07 10.7919V10.792V16.908V16.9081C-1.22737e-05 18.434 -2.23964e-05 19.6613 0.0811204 20.6544C0.164578 21.6759 0.340556 22.5679 0.76023 23.3916C1.42895 24.704 2.49599 25.7711 3.80842 26.4398C4.63208 26.8594 5.52411 27.0354 6.54558 27.1189C7.53872 27.2 8.76604 27.2 10.292 27.2H16.408C17.934 27.2 19.1613 27.2 20.1544 27.1189C21.1759 27.0354 22.0679 26.8594 22.8916 26.4398C24.204 25.7711 25.2711 24.704 25.9398 23.3916C26.3594 22.5679 26.5354 21.6759 26.6189 20.6544C26.7 19.6613 26.7 18.434 26.7 16.908V10.792C26.7 9.26604 26.7 8.03872 26.6189 7.04558C26.5354 6.02411 26.3594 5.13208 25.9398 4.30842C25.2711 2.99599 24.204 1.92895 22.8916 1.26023C22.0679 0.840556 21.1759 0.664578 20.1544 0.58112C19.1613 0.499978 17.934 0.499988 16.4081 0.5H16.408ZM5.03419 3.66595C5.41379 3.47253 5.91095 3.34197 6.76544 3.27215C7.6357 3.20105 8.75258 3.2 10.35 3.2H16.35C17.9474 3.2 19.0643 3.20105 19.9346 3.27215C20.7891 3.34197 21.2862 3.47253 21.6658 3.66595C22.4702 4.07581 23.1242 4.7298 23.5341 5.53419C23.7275 5.91379 23.858 6.41095 23.9278 7.26544C23.999 8.1357 24 9.25258 24 10.85V16.85C24 18.4474 23.999 19.5643 23.9278 20.4346C23.858 21.2891 23.7275 21.7862 23.5341 22.1658C23.1242 22.9702 22.4702 23.6242 21.6658 24.0341C21.2862 24.2275 20.7891 24.358 19.9346 24.4278C19.0643 24.499 17.9474 24.5 16.35 24.5H10.35C8.75258 24.5 7.6357 24.499 6.76544 24.4278C5.91095 24.358 5.41379 24.2275 5.03419 24.0341C4.2298 23.6242 3.57581 22.9702 3.16595 22.1658C2.97253 21.7862 2.84197 21.2891 2.77215 20.4346C2.70105 19.5643 2.7 18.4474 2.7 16.85V10.85C2.7 9.25258 2.70105 8.1357 2.77215 7.26544C2.84197 6.41095 2.97253 5.91379 3.16595 5.53419C3.57581 4.7298 4.2298 4.07581 5.03419 3.66595ZM14.7 7.70004C14.7 6.95445 14.0956 6.35004 13.35 6.35004C12.6044 6.35004 12 6.95445 12 7.70004V20C12 20.7456 12.6044 21.35 13.35 21.35C14.0956 21.35 14.7 20.7456 14.7 20V7.70004ZM7.35 10.85C8.09558 10.85 8.7 11.4545 8.7 12.2V20C8.7 20.7456 8.09558 21.35 7.35 21.35C6.60442 21.35 6 20.7456 6 20V12.2C6 11.4545 6.60442 10.85 7.35 10.85ZM20.7 15.2C20.7 14.4545 20.0956 13.85 19.35 13.85C18.6044 13.85 18 14.4545 18 15.2V20C18 20.7456 18.6044 21.35 19.35 21.35C20.0956 21.35 20.7 20.7456 20.7 20V15.2Z" fill="white"/>
</svg>
