<svg width="25" height="24" viewBox="0 0 25 24" fill="none" xmlns="http://www.w3.org/2000/svg">
<path fill-rule="evenodd" clip-rule="evenodd" d="M23 17.1072V17.3929H22.9872C22.7013 20.5739 17.6677 23.1072 11.5 23.1072C5.33231 23.1072 0.298657 20.5739 0.0128104 17.3929H0V17.1072V12.6786H3.7409C5.78618 11.7026 8.50982 11.1072 11.5 11.1072C14.4902 11.1072 17.2138 11.7026 19.2591 12.6786H23V17.1072Z" fill="#CF6C10"/>
<ellipse cx="11.5" cy="12.7852" rx="11.5" ry="6" fill="#FFA450"/>
<path fill-rule="evenodd" clip-rule="evenodd" d="M24.5713 11.2139V11.4996H24.5585C24.2726 14.6806 19.239 17.2139 13.0713 17.2139C6.9036 17.2139 1.86995 14.6806 1.5841 11.4996H1.57129V11.2139V6.78529H5.31219C7.35747 5.80929 10.0811 5.21387 13.0713 5.21387C16.0615 5.21387 18.7851 5.80929 20.8304 6.78529H24.5713V11.2139Z" fill="#CF6C10"/>
<ellipse cx="13.0715" cy="6.89258" rx="11.5" ry="6" fill="#FFA450"/>
<mask id="path-5-outside-1_71_1806" maskUnits="userSpaceOnUse" x="4" y="1.89258" width="18" height="11" fill="black">
<rect fill="white" x="4" y="1.89258" width="18" height="11"/>
<path d="M11.1518 3.89258C10.1875 5.26214 7.49821 8.15345 7 8.4578C7.27679 8.55924 7.66429 8.76214 8.32857 9.06649C8.99286 8.4578 10.4875 6.93606 11.1518 6.02301C11.65 7.08823 11.8161 7.54475 11.9821 8.15345C12.4804 7.95055 14.4164 7.45345 16.0107 7.08823C15.6121 7.33171 13.9375 9.39258 13.1018 10.2549L14.4732 10.8926C15.4696 9.32011 17.5 6.78388 19 5.55924C16.9375 5.55924 14.4179 6.22591 12.8125 6.78388C12.3143 6.02301 11.9821 4.89258 11.1518 3.89258Z"/>
</mask>
<path d="M7 8.4578L6.4787 7.60442L4.71141 8.68402L6.65586 9.39671L7 8.4578ZM11.1518 3.89258L11.9211 3.25375L11.0864 2.24846L10.3341 3.31688L11.1518 3.89258ZM12.8125 6.78388L11.9759 7.33169L12.4035 7.98472L13.1408 7.72845L12.8125 6.78388ZM19 5.55924L19.6324 6.33387L21.8061 4.55924H19V5.55924ZM14.4732 10.8926L14.0516 11.7993L14.8479 12.1696L15.3179 11.4278L14.4732 10.8926ZM13.1018 10.2549L12.3837 9.55895L11.405 10.5688L12.6802 11.1617L13.1018 10.2549ZM16.0107 7.08823L16.532 7.9416L15.7874 6.11348L16.0107 7.08823ZM11.9821 8.15345L11.0174 8.41666L11.3144 9.50514L12.3593 9.07959L11.9821 8.15345ZM11.1518 6.02301L12.0576 5.59935L11.3399 4.06475L10.3432 5.43469L11.1518 6.02301ZM8.32857 9.06649L7.91205 9.97562L8.5151 10.2519L9.00416 9.80377L8.32857 9.06649ZM7.5213 9.31117C7.67134 9.21952 7.82913 9.08334 7.95109 8.9735C8.09089 8.8476 8.25329 8.69186 8.42831 8.51788C8.77931 8.16894 9.20322 7.72455 9.63798 7.25069C10.4973 6.31401 11.4479 5.20906 11.9694 4.46828L10.3341 3.31688C9.89141 3.94566 9.01516 4.97114 8.16425 5.8986C7.74388 6.3568 7.34178 6.7779 7.01829 7.09948C6.85606 7.26076 6.71908 7.39153 6.61268 7.48735C6.48845 7.59923 6.45322 7.61999 6.4787 7.60442L7.5213 9.31117ZM10.3824 4.53141C10.7228 4.94131 10.9726 5.39138 11.2107 5.8719C11.428 6.31047 11.6831 6.88452 11.9759 7.33169L13.6491 6.23608C13.4437 5.92238 13.2836 5.55078 13.0027 4.9839C12.7426 4.459 12.4111 3.84385 11.9211 3.25375L10.3824 4.53141ZM13.1408 7.72845C14.7084 7.18362 17.1036 6.55924 19 6.55924V4.55924C16.7714 4.55924 14.1274 5.2682 12.4842 5.83931L13.1408 7.72845ZM18.3676 4.78462C16.7553 6.10094 14.658 8.73265 13.6285 10.3573L15.3179 11.4278C16.2813 9.90757 18.2447 7.46683 19.6324 6.33387L18.3676 4.78462ZM14.8948 9.98581L13.5234 9.34813L12.6802 11.1617L14.0516 11.7993L14.8948 9.98581ZM13.8199 10.9508C14.2607 10.496 14.916 9.733 15.4721 9.09877C15.7582 8.77242 16.0213 8.47625 16.2347 8.24881C16.3417 8.13479 16.4286 8.04635 16.4945 7.98363C16.5768 7.90545 16.5805 7.91199 16.532 7.9416L15.4894 6.23486C15.3413 6.32534 15.2055 6.44955 15.1166 6.53404C15.0114 6.634 14.8955 6.75324 14.7764 6.88014C14.5376 7.13454 14.2551 7.45314 13.9683 7.78022C13.3785 8.45288 12.7786 9.15151 12.3837 9.55895L13.8199 10.9508ZM15.7874 6.11348C14.9813 6.29815 14.0886 6.51617 13.332 6.71434C12.6056 6.9046 11.9272 7.09607 11.605 7.22731L12.3593 9.07959C12.5353 9.00793 13.074 8.8494 13.8388 8.64908C14.5734 8.45667 15.4459 8.24353 16.234 8.06298L15.7874 6.11348ZM12.9469 7.89024C12.7607 7.20801 12.5703 6.69544 12.0576 5.59935L10.246 6.44668C10.7297 7.48102 10.8714 7.88149 11.0174 8.41666L12.9469 7.89024ZM10.3432 5.43469C9.73744 6.26724 8.30028 7.73608 7.65299 8.32921L9.00416 9.80377C9.68543 9.17951 11.2376 7.60488 11.9604 6.61133L10.3432 5.43469ZM8.74509 8.15737C8.16001 7.88931 7.6676 7.63743 7.34414 7.51888L6.65586 9.39671C6.88597 9.48106 7.16856 9.63498 7.91205 9.97562L8.74509 8.15737Z" fill="#CF6C10" mask="url(#path-5-outside-1_71_1806)"/>
</svg>
